<mxfile host="app.diagrams.net" agent="Mozilla/5.0 (Macintosh; Intel Mac OS X 10_15_7) AppleWebKit/537.36 (KHTML, like Gecko) Chrome/133.0.0.0 Safari/537.36" version="26.0.11">
  <diagram name="페이지-1" id="Y2dLASEYGfxgdQD2mr--">
    <mxGraphModel dx="1434" dy="2195" grid="0" gridSize="10" guides="1" tooltips="1" connect="1" arrows="1" fold="1" page="1" pageScale="1" pageWidth="1600" pageHeight="1400" background="none" math="0" shadow="0">
      <root>
        <mxCell id="0" />
        <mxCell id="1" parent="0" />
        <mxCell id="NHUCo9_RereNcycSFT4u-7" value="DB" style="shape=cylinder3;whiteSpace=wrap;html=1;boundedLbl=1;backgroundOutline=1;size=15;" vertex="1" parent="1">
          <mxGeometry x="1262" y="294" width="60" height="80" as="geometry" />
        </mxCell>
        <mxCell id="NHUCo9_RereNcycSFT4u-34" style="rounded=0;orthogonalLoop=1;jettySize=auto;html=1;edgeStyle=orthogonalEdgeStyle;" edge="1" parent="1" source="NHUCo9_RereNcycSFT4u-8" target="NHUCo9_RereNcycSFT4u-32">
          <mxGeometry relative="1" as="geometry" />
        </mxCell>
        <mxCell id="NHUCo9_RereNcycSFT4u-35" style="rounded=0;orthogonalLoop=1;jettySize=auto;html=1;edgeStyle=orthogonalEdgeStyle;" edge="1" parent="1" source="NHUCo9_RereNcycSFT4u-8" target="NHUCo9_RereNcycSFT4u-33">
          <mxGeometry relative="1" as="geometry" />
        </mxCell>
        <mxCell id="NHUCo9_RereNcycSFT4u-40" style="edgeStyle=orthogonalEdgeStyle;rounded=0;orthogonalLoop=1;jettySize=auto;html=1;entryX=0.5;entryY=1;entryDx=0;entryDy=0;curved=1;" edge="1" parent="1" source="NHUCo9_RereNcycSFT4u-8" target="NHUCo9_RereNcycSFT4u-24">
          <mxGeometry relative="1" as="geometry">
            <Array as="points">
              <mxPoint x="634" y="493" />
              <mxPoint x="1075" y="493" />
            </Array>
          </mxGeometry>
        </mxCell>
        <mxCell id="NHUCo9_RereNcycSFT4u-8" value="SupervisorService" style="rounded=1;whiteSpace=wrap;html=1;" vertex="1" parent="1">
          <mxGeometry x="572" y="288" width="120" height="38" as="geometry" />
        </mxCell>
        <mxCell id="NHUCo9_RereNcycSFT4u-11" value="" style="endArrow=none;dashed=1;html=1;dashPattern=1 3;strokeWidth=2;rounded=0;" edge="1" parent="1">
          <mxGeometry width="50" height="50" relative="1" as="geometry">
            <mxPoint x="85" y="686" as="sourcePoint" />
            <mxPoint x="85" y="98" as="targetPoint" />
          </mxGeometry>
        </mxCell>
        <mxCell id="NHUCo9_RereNcycSFT4u-12" value="" style="endArrow=none;dashed=1;html=1;dashPattern=1 3;strokeWidth=2;rounded=0;" edge="1" parent="1" source="NHUCo9_RereNcycSFT4u-29">
          <mxGeometry width="50" height="50" relative="1" as="geometry">
            <mxPoint x="300" y="484" as="sourcePoint" />
            <mxPoint x="300" y="101" as="targetPoint" />
          </mxGeometry>
        </mxCell>
        <mxCell id="NHUCo9_RereNcycSFT4u-13" value="Route" style="text;html=1;align=center;verticalAlign=middle;whiteSpace=wrap;rounded=0;" vertex="1" parent="1">
          <mxGeometry x="149" y="134" width="60" height="30" as="geometry" />
        </mxCell>
        <mxCell id="NHUCo9_RereNcycSFT4u-14" value="" style="endArrow=none;dashed=1;html=1;dashPattern=1 3;strokeWidth=2;rounded=0;" edge="1" parent="1">
          <mxGeometry width="50" height="50" relative="1" as="geometry">
            <mxPoint x="532" y="664" as="sourcePoint" />
            <mxPoint x="532" y="97" as="targetPoint" />
          </mxGeometry>
        </mxCell>
        <mxCell id="NHUCo9_RereNcycSFT4u-15" value="Controller" style="text;html=1;align=center;verticalAlign=middle;whiteSpace=wrap;rounded=0;" vertex="1" parent="1">
          <mxGeometry x="387" y="136" width="66" height="30" as="geometry" />
        </mxCell>
        <mxCell id="NHUCo9_RereNcycSFT4u-16" value="Service" style="text;html=1;align=center;verticalAlign=middle;whiteSpace=wrap;rounded=0;" vertex="1" parent="1">
          <mxGeometry x="710" y="134" width="66" height="30" as="geometry" />
        </mxCell>
        <mxCell id="NHUCo9_RereNcycSFT4u-17" value="" style="endArrow=none;dashed=1;html=1;dashPattern=1 3;strokeWidth=2;rounded=0;fillColor=#e1d5e7;strokeColor=#9673a6;" edge="1" parent="1">
          <mxGeometry width="50" height="50" relative="1" as="geometry">
            <mxPoint x="1840" y="979" as="sourcePoint" />
            <mxPoint x="1841" y="539" as="targetPoint" />
          </mxGeometry>
        </mxCell>
        <mxCell id="NHUCo9_RereNcycSFT4u-20" value="Model" style="text;html=1;align=center;verticalAlign=middle;whiteSpace=wrap;rounded=0;" vertex="1" parent="1">
          <mxGeometry x="1033" y="129" width="66" height="30" as="geometry" />
        </mxCell>
        <mxCell id="NHUCo9_RereNcycSFT4u-43" style="edgeStyle=orthogonalEdgeStyle;rounded=0;orthogonalLoop=1;jettySize=auto;html=1;curved=1;entryX=0;entryY=0.5;entryDx=0;entryDy=0;entryPerimeter=0;" edge="1" parent="1" source="NHUCo9_RereNcycSFT4u-22" target="NHUCo9_RereNcycSFT4u-7">
          <mxGeometry relative="1" as="geometry" />
        </mxCell>
        <mxCell id="NHUCo9_RereNcycSFT4u-22" value="BrokerManagerModel" style="rounded=1;whiteSpace=wrap;html=1;" vertex="1" parent="1">
          <mxGeometry x="996" y="257" width="158" height="28" as="geometry" />
        </mxCell>
        <mxCell id="NHUCo9_RereNcycSFT4u-23" value="ProviderManagerModel" style="rounded=1;whiteSpace=wrap;html=1;" vertex="1" parent="1">
          <mxGeometry x="996" y="320" width="158" height="28" as="geometry" />
        </mxCell>
        <mxCell id="NHUCo9_RereNcycSFT4u-24" value="BrokerActivityLogModel" style="rounded=1;whiteSpace=wrap;html=1;" vertex="1" parent="1">
          <mxGeometry x="996" y="391" width="158" height="28" as="geometry" />
        </mxCell>
        <mxCell id="NHUCo9_RereNcycSFT4u-27" value="" style="endArrow=none;dashed=1;html=1;dashPattern=1 3;strokeWidth=2;rounded=0;" edge="1" parent="1">
          <mxGeometry width="50" height="50" relative="1" as="geometry">
            <mxPoint x="1181" y="572" as="sourcePoint" />
            <mxPoint x="1175" y="101" as="targetPoint" />
          </mxGeometry>
        </mxCell>
        <mxCell id="NHUCo9_RereNcycSFT4u-28" style="edgeStyle=orthogonalEdgeStyle;rounded=0;orthogonalLoop=1;jettySize=auto;html=1;exitX=0.5;exitY=1;exitDx=0;exitDy=0;" edge="1" parent="1" source="NHUCo9_RereNcycSFT4u-20" target="NHUCo9_RereNcycSFT4u-20">
          <mxGeometry relative="1" as="geometry" />
        </mxCell>
        <mxCell id="NHUCo9_RereNcycSFT4u-31" value="" style="endArrow=none;dashed=1;html=1;dashPattern=1 3;strokeWidth=2;rounded=0;entryX=0.5;entryY=1;entryDx=0;entryDy=0;" edge="1" parent="1" target="NHUCo9_RereNcycSFT4u-29">
          <mxGeometry width="50" height="50" relative="1" as="geometry">
            <mxPoint x="299" y="672" as="sourcePoint" />
            <mxPoint x="318" y="144" as="targetPoint" />
          </mxGeometry>
        </mxCell>
        <mxCell id="NHUCo9_RereNcycSFT4u-29" value="&lt;div&gt;&lt;br&gt;&lt;/div&gt;&lt;div&gt;&lt;br&gt;&lt;/div&gt;&lt;div&gt;&lt;br&gt;&lt;/div&gt;Middle&lt;br&gt;Ware" style="rounded=1;whiteSpace=wrap;html=1;fillColor=#d5e8d4;strokeColor=#82b366;" vertex="1" parent="1">
          <mxGeometry x="281" y="169" width="36" height="290" as="geometry" />
        </mxCell>
        <mxCell id="NHUCo9_RereNcycSFT4u-36" style="edgeStyle=orthogonalEdgeStyle;rounded=0;orthogonalLoop=1;jettySize=auto;html=1;entryX=0;entryY=0.5;entryDx=0;entryDy=0;curved=1;" edge="1" parent="1" source="NHUCo9_RereNcycSFT4u-32" target="NHUCo9_RereNcycSFT4u-22">
          <mxGeometry relative="1" as="geometry" />
        </mxCell>
        <mxCell id="NHUCo9_RereNcycSFT4u-32" value="BrokerService&lt;span style=&quot;color: rgba(0, 0, 0, 0); font-family: monospace; font-size: 0px; text-align: start; text-wrap-mode: nowrap;&quot;&gt;%3CmxGraphModel%3E%3Croot%3E%3CmxCell%20id%3D%220%22%2F%3E%3CmxCell%20id%3D%221%22%20parent%3D%220%22%2F%3E%3CmxCell%20id%3D%222%22%20value%3D%22SupervisorService%22%20style%3D%22rounded%3D1%3BwhiteSpace%3Dwrap%3Bhtml%3D1%3B%22%20vertex%3D%221%22%20parent%3D%221%22%3E%3CmxGeometry%20x%3D%22569%22%20y%3D%22289%22%20width%3D%22120%22%20height%3D%2260%22%20as%3D%22geometry%22%2F%3E%3C%2FmxCell%3E%3C%2Froot%3E%3C%2FmxGraphModel%3E&lt;/span&gt;" style="rounded=1;whiteSpace=wrap;html=1;" vertex="1" parent="1">
          <mxGeometry x="728" y="205" width="120" height="54" as="geometry" />
        </mxCell>
        <mxCell id="NHUCo9_RereNcycSFT4u-37" style="edgeStyle=orthogonalEdgeStyle;rounded=0;orthogonalLoop=1;jettySize=auto;html=1;entryX=0;entryY=0.5;entryDx=0;entryDy=0;curved=1;" edge="1" parent="1" source="NHUCo9_RereNcycSFT4u-33" target="NHUCo9_RereNcycSFT4u-23">
          <mxGeometry relative="1" as="geometry" />
        </mxCell>
        <mxCell id="NHUCo9_RereNcycSFT4u-33" value="ProviderService" style="rounded=1;whiteSpace=wrap;html=1;" vertex="1" parent="1">
          <mxGeometry x="728" y="356" width="120" height="50" as="geometry" />
        </mxCell>
        <mxCell id="NHUCo9_RereNcycSFT4u-41" style="edgeStyle=orthogonalEdgeStyle;rounded=0;orthogonalLoop=1;jettySize=auto;html=1;entryX=0;entryY=0.5;entryDx=0;entryDy=0;entryPerimeter=0;curved=1;" edge="1" parent="1" source="NHUCo9_RereNcycSFT4u-24" target="NHUCo9_RereNcycSFT4u-7">
          <mxGeometry relative="1" as="geometry" />
        </mxCell>
        <mxCell id="NHUCo9_RereNcycSFT4u-42" style="edgeStyle=orthogonalEdgeStyle;rounded=0;orthogonalLoop=1;jettySize=auto;html=1;entryX=0;entryY=0.5;entryDx=0;entryDy=0;entryPerimeter=0;curved=1;" edge="1" parent="1" source="NHUCo9_RereNcycSFT4u-23" target="NHUCo9_RereNcycSFT4u-7">
          <mxGeometry relative="1" as="geometry" />
        </mxCell>
        <mxCell id="NHUCo9_RereNcycSFT4u-49" style="edgeStyle=orthogonalEdgeStyle;rounded=0;orthogonalLoop=1;jettySize=auto;html=1;curved=1;" edge="1" parent="1" source="NHUCo9_RereNcycSFT4u-46" target="NHUCo9_RereNcycSFT4u-8">
          <mxGeometry relative="1" as="geometry" />
        </mxCell>
        <mxCell id="NHUCo9_RereNcycSFT4u-46" value="SupervisorController" style="rounded=1;whiteSpace=wrap;html=1;" vertex="1" parent="1">
          <mxGeometry x="332" y="288" width="166" height="38" as="geometry" />
        </mxCell>
        <mxCell id="NHUCo9_RereNcycSFT4u-50" style="rounded=0;orthogonalLoop=1;jettySize=auto;html=1;entryX=0;entryY=0.5;entryDx=0;entryDy=0;edgeStyle=orthogonalEdgeStyle;curved=1;" edge="1" parent="1" source="NHUCo9_RereNcycSFT4u-47" target="NHUCo9_RereNcycSFT4u-32">
          <mxGeometry relative="1" as="geometry" />
        </mxCell>
        <mxCell id="NHUCo9_RereNcycSFT4u-47" value="BrokerManagerController" style="rounded=1;whiteSpace=wrap;html=1;" vertex="1" parent="1">
          <mxGeometry x="333" y="213" width="160" height="38" as="geometry" />
        </mxCell>
        <mxCell id="NHUCo9_RereNcycSFT4u-51" style="rounded=0;orthogonalLoop=1;jettySize=auto;html=1;entryX=0;entryY=0.5;entryDx=0;entryDy=0;edgeStyle=orthogonalEdgeStyle;curved=1;" edge="1" parent="1" source="NHUCo9_RereNcycSFT4u-48" target="NHUCo9_RereNcycSFT4u-33">
          <mxGeometry relative="1" as="geometry" />
        </mxCell>
        <mxCell id="NHUCo9_RereNcycSFT4u-48" value="ProviderManagerController" style="rounded=1;whiteSpace=wrap;html=1;" vertex="1" parent="1">
          <mxGeometry x="333" y="362" width="160" height="38" as="geometry" />
        </mxCell>
        <mxCell id="NHUCo9_RereNcycSFT4u-62" style="edgeStyle=orthogonalEdgeStyle;rounded=0;orthogonalLoop=1;jettySize=auto;html=1;entryX=0;entryY=0.5;entryDx=0;entryDy=0;dashed=1;" edge="1" parent="1" source="NHUCo9_RereNcycSFT4u-57" target="NHUCo9_RereNcycSFT4u-48">
          <mxGeometry relative="1" as="geometry" />
        </mxCell>
        <mxCell id="NHUCo9_RereNcycSFT4u-57" value="/api/v1/provider/managers/" style="text;html=1;align=center;verticalAlign=middle;whiteSpace=wrap;rounded=0;" vertex="1" parent="1">
          <mxGeometry x="109" y="367" width="156" height="29" as="geometry" />
        </mxCell>
        <mxCell id="NHUCo9_RereNcycSFT4u-60" style="edgeStyle=orthogonalEdgeStyle;rounded=0;orthogonalLoop=1;jettySize=auto;html=1;dashed=1;" edge="1" parent="1" source="NHUCo9_RereNcycSFT4u-58" target="NHUCo9_RereNcycSFT4u-47">
          <mxGeometry relative="1" as="geometry" />
        </mxCell>
        <mxCell id="NHUCo9_RereNcycSFT4u-58" value="/api/v1/brokers/managers/" style="text;html=1;align=center;verticalAlign=middle;whiteSpace=wrap;rounded=0;" vertex="1" parent="1">
          <mxGeometry x="104" y="218" width="156" height="29" as="geometry" />
        </mxCell>
        <mxCell id="NHUCo9_RereNcycSFT4u-61" style="edgeStyle=orthogonalEdgeStyle;rounded=0;orthogonalLoop=1;jettySize=auto;html=1;entryX=0;entryY=0.5;entryDx=0;entryDy=0;dashed=1;" edge="1" parent="1" source="NHUCo9_RereNcycSFT4u-59" target="NHUCo9_RereNcycSFT4u-46">
          <mxGeometry relative="1" as="geometry" />
        </mxCell>
        <mxCell id="NHUCo9_RereNcycSFT4u-59" value="/api/v1/supervisors/" style="text;html=1;align=center;verticalAlign=middle;whiteSpace=wrap;rounded=0;" vertex="1" parent="1">
          <mxGeometry x="120" y="292.5" width="124" height="29" as="geometry" />
        </mxCell>
        <mxCell id="NHUCo9_RereNcycSFT4u-65" value="" style="endArrow=none;dashed=1;html=1;dashPattern=1 3;strokeWidth=2;rounded=0;" edge="1" parent="1">
          <mxGeometry width="50" height="50" relative="1" as="geometry">
            <mxPoint x="922" y="667" as="sourcePoint" />
            <mxPoint x="922" y="102" as="targetPoint" />
          </mxGeometry>
        </mxCell>
        <mxCell id="NHUCo9_RereNcycSFT4u-70" value="" style="group" vertex="1" connectable="0" parent="1">
          <mxGeometry x="882" y="-328" width="75" height="413" as="geometry" />
        </mxCell>
        <mxCell id="NHUCo9_RereNcycSFT4u-53" value="" style="rounded=1;whiteSpace=wrap;html=1;fillColor=#e1d5e7;strokeColor=#9673a6;labelBackgroundColor=none;dashed=1;dashPattern=1 4;" vertex="1" parent="NHUCo9_RereNcycSFT4u-70">
          <mxGeometry x="30" y="24" width="19" height="389" as="geometry" />
        </mxCell>
        <mxCell id="NHUCo9_RereNcycSFT4u-68" value="Repository" style="text;html=1;align=center;verticalAlign=middle;resizable=0;points=[];autosize=1;strokeColor=none;fillColor=none;" vertex="1" parent="NHUCo9_RereNcycSFT4u-70">
          <mxGeometry width="75" height="26" as="geometry" />
        </mxCell>
      </root>
    </mxGraphModel>
  </diagram>
</mxfile>
